<svg data-v-423bf9ae="" xmlns="http://www.w3.org/2000/svg" viewBox="0 0 386.21014454977393 60" class="font"><!----><!----><!----><g data-v-423bf9ae="" id="0838d0b8-aea4-423b-9d30-7aad76f54dc7" fill="#4BBA5B" transform="matrix(3.541912521157889,0,0,3.541912521157889,-1.4167629881983714,-22.774496426198482)"><path d="M11.38 14.94L11.38 14.94L11.38 14.94Q11.38 15.46 11.31 16.00L11.31 16.00L11.31 16.00Q11.25 16.54 11.09 17.05L11.09 17.05L11.09 17.05Q10.93 17.55 10.67 18.00L10.67 18.00L10.67 18.00Q10.41 18.44 10.02 18.77L10.02 18.77L10.02 18.77Q9.64 19.11 9.11 19.30L9.11 19.30L9.11 19.30Q8.58 19.49 7.89 19.49L7.89 19.49L7.89 19.49Q7.11 19.49 6.55 19.33L6.55 19.33L6.55 19.33Q5.98 19.16 5.58 18.93L5.58 18.93L5.58 20.52L5.58 20.52Q5.58 20.81 5.66 20.96L5.66 20.96L5.66 20.96Q5.74 21.12 5.84 21.19L5.84 21.19L5.84 21.19Q5.95 21.27 6.09 21.30L6.09 21.30L6.09 21.30Q6.22 21.33 6.33 21.37L6.33 21.37L6.33 21.37Q6.44 21.40 6.51 21.47L6.51 21.47L6.51 21.47Q6.59 21.53 6.59 21.68L6.59 21.68L6.59 21.68Q6.59 22.46 5.78 22.81L5.78 22.81L5.78 22.81Q4.98 23.15 3.45 23.15L3.45 23.15L3.45 23.15Q2.72 23.15 2.15 23.07L2.15 23.07L2.15 23.07Q1.59 22.99 1.20 22.81L1.20 22.81L1.20 22.81Q0.81 22.63 0.60 22.35L0.60 22.35L0.60 22.35Q0.40 22.07 0.40 21.68L0.40 21.68L0.40 21.68Q0.40 21.53 0.48 21.47L0.48 21.47L0.48 21.47Q0.55 21.40 0.66 21.37L0.66 21.37L0.66 21.37Q0.77 21.33 0.90 21.31L0.90 21.31L0.90 21.31Q1.03 21.28 1.14 21.20L1.14 21.20L1.14 21.20Q1.25 21.12 1.32 20.98L1.32 20.98L1.32 20.98Q1.39 20.83 1.39 20.55L1.39 20.55L1.39 13.06L1.39 13.06Q1.39 12.79 1.32 12.64L1.32 12.64L1.32 12.64Q1.25 12.49 1.14 12.41L1.14 12.41L1.14 12.41Q1.03 12.33 0.90 12.30L0.90 12.30L0.90 12.30Q0.77 12.28 0.66 12.24L0.66 12.24L0.66 12.24Q0.55 12.21 0.48 12.14L0.48 12.14L0.48 12.14Q0.40 12.08 0.40 11.93L0.40 11.93L0.40 11.93Q0.40 11.54 0.60 11.26L0.60 11.26L0.60 11.26Q0.81 10.99 1.20 10.80L1.20 10.80L1.20 10.80Q1.59 10.62 2.15 10.54L2.15 10.54L2.15 10.54Q2.72 10.46 3.45 10.46L3.45 10.46L3.45 10.46Q4.25 10.46 4.69 10.58L4.69 10.58L4.69 10.58Q5.12 10.69 5.32 10.99L5.32 10.99L5.32 10.99Q5.51 10.84 5.76 10.71L5.76 10.71L5.76 10.71Q6.00 10.58 6.31 10.48L6.31 10.48L6.31 10.48Q6.62 10.38 7.00 10.32L7.00 10.32L7.00 10.32Q7.38 10.26 7.85 10.26L7.85 10.26L7.85 10.26Q8.54 10.26 9.07 10.46L9.07 10.46L9.07 10.46Q9.60 10.66 10.00 11.00L10.00 11.00L10.00 11.00Q10.39 11.33 10.65 11.79L10.65 11.79L10.65 11.79Q10.92 12.25 11.08 12.77L11.08 12.77L11.08 12.77Q11.24 13.29 11.31 13.84L11.31 13.84L11.31 13.84Q11.38 14.40 11.38 14.94ZM5.60 13.06L5.58 17.57L5.58 17.57Q5.73 17.62 5.88 17.65L5.88 17.65L5.88 17.65Q6.03 17.68 6.19 17.68L6.19 17.68L6.19 17.68Q6.57 17.68 6.77 17.56L6.77 17.56L6.77 17.56Q6.98 17.44 7.08 17.13L7.08 17.13L7.08 17.13Q7.17 16.82 7.19 16.30L7.19 16.30L7.19 16.30Q7.21 15.77 7.21 14.96L7.21 14.96L7.21 14.96Q7.21 14.12 7.14 13.55L7.14 13.55L7.14 13.55Q7.08 12.97 6.95 12.64L6.95 12.64L6.95 12.64Q6.81 12.30 6.59 12.15L6.59 12.15L6.59 12.15Q6.37 12.01 6.06 12.01L6.06 12.01L6.06 12.01Q5.93 12.01 5.81 12.03L5.81 12.03L5.81 12.03Q5.69 12.05 5.58 12.09L5.58 12.09L5.58 12.09Q5.60 12.30 5.60 12.54L5.60 12.54L5.60 12.54Q5.60 12.78 5.60 13.06L5.60 13.06ZM17.22 12.01L17.22 12.01L17.22 12.01Q17.00 12.01 16.81 12.11L16.81 12.11L16.81 12.11Q16.62 12.21 16.48 12.41L16.48 12.41L16.48 12.41Q16.34 12.62 16.26 12.94L16.26 12.94L16.26 12.94Q16.18 13.25 16.18 13.69L16.18 13.69L18.36 13.69L18.36 13.69Q18.36 13.21 18.29 12.89L18.29 12.89L18.29 12.89Q18.21 12.56 18.07 12.37L18.07 12.37L18.07 12.37Q17.92 12.17 17.71 12.09L17.71 12.09L17.71 12.09Q17.49 12.01 17.22 12.01ZM16.71 10.26L16.71 10.26L16.71 10.26Q17.63 10.26 18.36 10.53L18.36 10.53L18.36 10.53Q19.10 10.81 19.62 11.29L19.62 11.29L19.62 11.29Q20.13 11.76 20.41 12.41L20.41 12.41L20.41 12.41Q20.69 13.06 20.69 13.80L20.69 13.80L20.69 13.80Q20.69 14.11 20.60 14.28L20.60 14.28L20.60 14.28Q20.51 14.45 20.36 14.53L20.36 14.53L20.36 14.53Q20.20 14.62 19.97 14.64L19.97 14.64L19.97 14.64Q19.74 14.66 19.44 14.66L19.44 14.66L16.15 14.66L16.15 14.66Q16.15 15.41 16.31 15.88L16.31 15.88L16.31 15.88Q16.46 16.34 16.73 16.60L16.73 16.60L16.73 16.60Q17.01 16.86 17.39 16.96L17.39 16.96L17.39 16.96Q17.77 17.05 18.24 17.05L18.24 17.05L18.24 17.05Q18.48 17.05 18.75 17.00L18.75 17.00L18.75 17.00Q19.01 16.95 19.25 16.88L19.25 16.88L19.25 16.88Q19.50 16.80 19.70 16.72L19.70 16.72L19.70 16.72Q19.91 16.64 20.04 16.56L20.04 16.56L20.04 16.56Q20.15 16.50 20.25 16.50L20.25 16.50L20.25 16.50Q20.41 16.50 20.50 16.64L20.50 16.64L20.50 16.64Q20.59 16.77 20.59 16.93L20.59 16.93L20.59 16.93Q20.59 16.99 20.58 17.04L20.58 17.04L20.58 17.04Q20.58 17.08 20.56 17.13L20.56 17.13L20.56 17.13Q20.36 17.64 20.02 18.07L20.02 18.07L20.02 18.07Q19.67 18.50 19.19 18.82L19.19 18.82L19.19 18.82Q18.70 19.13 18.05 19.31L18.05 19.31L18.05 19.31Q17.41 19.49 16.61 19.49L16.61 19.49L16.61 19.49Q15.85 19.49 15.21 19.31L15.21 19.31L15.21 19.31Q14.58 19.13 14.07 18.80L14.07 18.80L14.07 18.80Q13.56 18.48 13.18 18.04L13.18 18.04L13.18 18.04Q12.80 17.60 12.54 17.09L12.54 17.09L12.54 17.09Q12.29 16.57 12.16 16.01L12.16 16.01L12.16 16.01Q12.04 15.44 12.04 14.87L12.04 14.87L12.04 14.87Q12.04 14.29 12.17 13.72L12.17 13.72L12.17 13.72Q12.30 13.15 12.56 12.63L12.56 12.63L12.56 12.63Q12.82 12.12 13.21 11.69L13.21 11.69L13.21 11.69Q13.60 11.25 14.12 10.93L14.12 10.93L14.12 10.93Q14.64 10.62 15.29 10.44L15.29 10.44L15.29 10.44Q15.93 10.26 16.71 10.26ZM25.83 17.92L25.83 17.92L25.83 17.92Q26.05 17.92 26.19 17.85L26.19 17.85L26.19 17.85Q26.33 17.77 26.41 17.64L26.41 17.64L26.41 17.64Q26.48 17.51 26.51 17.31L26.51 17.31L26.51 17.31Q26.53 17.12 26.53 16.87L26.53 16.87L26.53 16.87Q26.53 16.66 26.52 16.33L26.52 16.33L26.52 16.33Q26.52 16.00 26.51 15.69L26.51 15.69L26.51 15.69Q26.50 15.32 26.49 14.92L26.49 14.92L26.49 14.92Q26.39 14.91 26.31 14.90L26.31 14.90L26.31 14.90Q26.22 14.89 26.14 14.89L26.14 14.89L26.14 14.89Q25.79 14.89 25.56 15.03L25.56 15.03L25.56 15.03Q25.32 15.17 25.18 15.42L25.18 15.42L25.18 15.42Q25.03 15.67 24.98 16.01L24.98 16.01L24.98 16.01Q24.92 16.34 24.92 16.74L24.92 16.74L24.92 16.74Q24.92 16.98 24.94 17.20L24.94 17.20L24.94 17.20Q24.97 17.41 25.07 17.57L25.07 17.57L25.07 17.57Q25.16 17.73 25.34 17.82L25.34 17.82L25.34 17.82Q25.53 17.92 25.83 17.92ZM29.12 19.32L29.12 19.32L29.12 19.32Q28.77 19.32 28.43 19.28L28.43 19.28L28.43 19.28Q28.08 19.24 27.77 19.13L27.77 19.13L27.77 19.13Q27.46 19.01 27.20 18.79L27.20 18.79L27.20 18.79Q26.94 18.57 26.76 18.21L26.76 18.21L26.76 18.21Q26.62 18.53 26.31 18.77L26.31 18.77L26.31 18.77Q26.01 19.01 25.62 19.17L25.62 19.17L25.62 19.17Q25.24 19.33 24.81 19.41L24.81 19.41L24.81 19.41Q24.38 19.49 23.99 19.49L23.99 19.49L23.99 19.49Q23.30 19.49 22.78 19.33L22.78 19.33L22.78 19.33Q22.26 19.16 21.91 18.86L21.91 18.86L21.91 18.86Q21.55 18.55 21.38 18.13L21.38 18.13L21.38 18.13Q21.20 17.71 21.20 17.18L21.20 17.18L21.20 17.18Q21.20 16.56 21.41 16.00L21.41 16.00L21.41 16.00Q21.62 15.44 22.12 15.03L22.12 15.03L22.12 15.03Q22.62 14.61 23.46 14.37L23.46 14.37L23.46 14.37Q24.30 14.12 25.57 14.12L25.57 14.12L26.50 14.12L26.50 14.12Q26.50 13.36 26.45 12.87L26.45 12.87L26.45 12.87Q26.40 12.37 26.29 12.07L26.29 12.07L26.29 12.07Q26.18 11.78 26.02 11.66L26.02 11.66L26.02 11.66Q25.85 11.55 25.62 11.55L25.62 11.55L25.62 11.55Q25.36 11.55 25.19 11.70L25.19 11.70L25.19 11.70Q25.01 11.86 24.91 12.16L24.91 12.16L24.91 12.16Q24.80 12.46 24.76 12.88L24.76 12.88L24.76 12.88Q24.71 13.30 24.71 13.83L24.71 13.83L24.71 13.83Q24.42 13.83 24.09 13.82L24.09 13.82L24.09 13.82Q23.77 13.81 23.45 13.77L23.45 13.77L23.45 13.77Q23.13 13.73 22.85 13.64L22.85 13.64L22.85 13.64Q22.57 13.56 22.35 13.41L22.35 13.41L22.35 13.41Q22.13 13.26 22.00 13.04L22.00 13.04L22.00 13.04Q21.87 12.81 21.87 12.49L21.87 12.49L21.87 12.49Q21.87 12.04 22.10 11.63L22.10 11.63L22.10 11.63Q22.34 11.23 22.83 10.93L22.83 10.93L22.83 10.93Q23.32 10.62 24.07 10.44L24.07 10.44L24.07 10.44Q24.82 10.26 25.86 10.26L25.86 10.26L25.86 10.26Q27.07 10.26 27.95 10.51L27.95 10.51L27.95 10.51Q28.82 10.75 29.38 11.25L29.38 11.25L29.38 11.25Q29.95 11.74 30.22 12.49L30.22 12.49L30.22 12.49Q30.49 13.23 30.49 14.24L30.49 14.24L30.49 16.66L30.49 16.66Q30.49 16.95 30.57 17.12L30.57 17.12L30.57 17.12Q30.65 17.28 30.76 17.37L30.76 17.37L30.76 17.37Q30.87 17.45 31.01 17.49L31.01 17.49L31.01 17.49Q31.14 17.52 31.26 17.56L31.26 17.56L31.26 17.56Q31.37 17.60 31.45 17.66L31.45 17.66L31.45 17.66Q31.53 17.73 31.53 17.88L31.53 17.88L31.53 17.88Q31.53 18.56 30.92 18.94L30.92 18.94L30.92 18.94Q30.30 19.32 29.12 19.32ZM36.42 10.26L36.42 10.26L36.42 10.26Q37.44 10.26 38.16 10.49L38.16 10.49L38.16 10.49Q38.88 10.71 39.34 11.09L39.34 11.09L39.34 11.09Q39.81 11.48 40.02 11.99L40.02 11.99L40.02 11.99Q40.23 12.50 40.23 13.08L40.23 13.08L40.23 13.08Q40.23 13.32 40.15 13.50L40.15 13.50L40.15 13.50Q40.08 13.69 39.95 13.82L39.95 13.82L39.95 13.82Q39.83 13.95 39.65 14.01L39.65 14.01L39.65 14.01Q39.47 14.08 39.27 14.08L39.27 14.08L39.27 14.08Q39.09 14.08 38.90 14.02L38.90 14.02L38.90 14.02Q38.72 13.96 38.55 13.82L38.55 13.82L38.55 13.82Q38.39 13.69 38.26 13.47L38.26 13.47L38.26 13.47Q38.13 13.25 38.06 12.93L38.06 12.93L38.06 12.93Q38.01 12.71 37.90 12.54L37.90 12.54L37.90 12.54Q37.79 12.37 37.65 12.25L37.65 12.25L37.65 12.25Q37.51 12.13 37.34 12.07L37.34 12.07L37.34 12.07Q37.17 12.01 37.01 12.01L37.01 12.01L37.01 12.01Q36.72 12.01 36.50 12.13L36.50 12.13L36.50 12.13Q36.29 12.26 36.14 12.49L36.14 12.49L36.14 12.49Q36.00 12.73 35.93 13.07L35.93 13.07L35.93 13.07Q35.86 13.41 35.86 13.83L35.86 13.83L35.86 13.83Q35.86 15.47 36.36 16.26L36.36 16.26L36.36 16.26Q36.85 17.05 37.95 17.05L37.95 17.05L37.95 17.05Q38.26 17.05 38.59 16.96L38.59 16.96L38.59 16.96Q38.92 16.88 39.20 16.78L39.20 16.78L39.20 16.78Q39.48 16.67 39.68 16.59L39.68 16.59L39.68 16.59Q39.89 16.50 39.96 16.50L39.96 16.50L39.96 16.50Q40.12 16.50 40.21 16.64L40.21 16.64L40.21 16.64Q40.30 16.77 40.30 16.94L40.30 16.94L40.30 16.94Q40.30 16.99 40.29 17.04L40.29 17.04L40.29 17.04Q40.29 17.09 40.27 17.14L40.27 17.14L40.27 17.14Q40.07 17.64 39.71 18.07L39.71 18.07L39.71 18.07Q39.35 18.50 38.85 18.82L38.85 18.82L38.85 18.82Q38.34 19.13 37.71 19.31L37.71 19.31L37.71 19.31Q37.07 19.49 36.33 19.49L36.33 19.49L36.33 19.49Q35.56 19.49 34.92 19.31L34.92 19.31L34.92 19.31Q34.29 19.13 33.78 18.80L33.78 18.80L33.78 18.80Q33.27 18.48 32.89 18.04L32.89 18.04L32.89 18.04Q32.51 17.60 32.26 17.09L32.26 17.09L32.26 17.09Q32.00 16.57 31.87 16.01L31.87 16.01L31.87 16.01Q31.75 15.44 31.75 14.87L31.75 14.87L31.75 14.87Q31.75 14.29 31.88 13.72L31.88 13.72L31.88 13.72Q32.01 13.15 32.27 12.63L32.27 12.63L32.27 12.63Q32.53 12.12 32.92 11.69L32.92 11.69L32.92 11.69Q33.30 11.25 33.82 10.93L33.82 10.93L33.82 10.93Q34.34 10.62 34.99 10.44L34.99 10.44L34.99 10.44Q35.64 10.26 36.42 10.26ZM46.01 12.01L46.01 12.01L46.01 12.01Q45.79 12.01 45.60 12.11L45.60 12.11L45.60 12.11Q45.41 12.21 45.27 12.41L45.27 12.41L45.27 12.41Q45.13 12.62 45.05 12.94L45.05 12.94L45.05 12.94Q44.97 13.25 44.97 13.69L44.97 13.69L47.15 13.69L47.15 13.69Q47.15 13.21 47.08 12.89L47.08 12.89L47.08 12.89Q47.00 12.56 46.86 12.37L46.86 12.37L46.86 12.37Q46.72 12.17 46.50 12.09L46.50 12.09L46.50 12.09Q46.29 12.01 46.01 12.01ZM45.51 10.26L45.51 10.26L45.51 10.26Q46.42 10.26 47.16 10.53L47.16 10.53L47.16 10.53Q47.89 10.81 48.41 11.29L48.41 11.29L48.41 11.29Q48.92 11.76 49.20 12.41L49.20 12.41L49.20 12.41Q49.48 13.06 49.48 13.80L49.48 13.80L49.48 13.80Q49.48 14.11 49.39 14.28L49.39 14.28L49.39 14.28Q49.31 14.45 49.15 14.53L49.15 14.53L49.15 14.53Q48.99 14.62 48.76 14.64L48.76 14.64L48.76 14.64Q48.53 14.66 48.23 14.66L48.23 14.66L44.95 14.66L44.95 14.66Q44.95 15.41 45.10 15.88L45.10 15.88L45.10 15.88Q45.25 16.34 45.53 16.60L45.53 16.60L45.53 16.60Q45.80 16.86 46.18 16.96L46.18 16.96L46.18 16.96Q46.57 17.05 47.03 17.05L47.03 17.05L47.03 17.05Q47.28 17.05 47.54 17.00L47.54 17.00L47.54 17.00Q47.80 16.95 48.05 16.88L48.05 16.88L48.05 16.88Q48.29 16.80 48.49 16.72L48.49 16.72L48.49 16.72Q48.70 16.64 48.84 16.56L48.84 16.56L48.84 16.56Q48.95 16.50 49.05 16.50L49.05 16.50L49.05 16.50Q49.21 16.50 49.29 16.64L49.29 16.64L49.29 16.64Q49.38 16.77 49.38 16.93L49.38 16.93L49.38 16.93Q49.38 16.99 49.38 17.04L49.38 17.04L49.38 17.04Q49.37 17.08 49.35 17.13L49.35 17.13L49.35 17.13Q49.15 17.64 48.81 18.07L48.81 18.07L48.81 18.07Q48.47 18.50 47.98 18.82L47.98 18.82L47.98 18.82Q47.49 19.13 46.85 19.31L46.85 19.31L46.85 19.31Q46.20 19.49 45.40 19.49L45.40 19.49L45.40 19.49Q44.64 19.49 44.01 19.31L44.01 19.31L44.01 19.31Q43.37 19.13 42.86 18.80L42.86 18.80L42.86 18.80Q42.36 18.48 41.97 18.04L41.97 18.04L41.97 18.04Q41.59 17.60 41.34 17.09L41.34 17.09L41.34 17.09Q41.08 16.57 40.96 16.01L40.96 16.01L40.96 16.01Q40.83 15.44 40.83 14.87L40.83 14.87L40.83 14.87Q40.83 14.29 40.96 13.72L40.96 13.72L40.96 13.72Q41.09 13.15 41.35 12.63L41.35 12.63L41.35 12.63Q41.61 12.12 42 11.69L42 11.69L42 11.69Q42.39 11.25 42.91 10.93L42.91 10.93L42.91 10.93Q43.43 10.62 44.08 10.44L44.08 10.44L44.08 10.44Q44.73 10.26 45.51 10.26ZM58.71 12.05L58.71 12.05L58.71 12.05Q58.71 11.89 58.42 11.76L58.42 11.76L58.42 11.76Q58.13 11.63 57.54 11.63L57.54 11.63L57.54 11.63Q57.24 11.63 57.06 11.67L57.06 11.67L57.06 11.67Q56.87 11.70 56.76 11.76L56.76 11.76L56.76 11.76Q56.65 11.83 56.61 11.92L56.61 11.92L56.61 11.92Q56.57 12.00 56.57 12.12L56.57 12.12L56.57 12.12Q56.57 12.35 56.79 12.51L56.79 12.51L56.79 12.51Q57.01 12.68 57.37 12.84L57.37 12.84L57.37 12.84Q57.73 13.00 58.19 13.15L58.19 13.15L58.19 13.15Q58.65 13.31 59.12 13.51L59.12 13.51L59.12 13.51Q59.60 13.71 60.06 13.98L60.06 13.98L60.06 13.98Q60.52 14.24 60.88 14.60L60.88 14.60L60.88 14.60Q61.24 14.96 61.46 15.44L61.46 15.44L61.46 15.44Q61.67 15.91 61.67 16.54L61.67 16.54L61.67 16.54Q61.67 17.32 61.32 17.87L61.32 17.87L61.32 17.87Q60.97 18.43 60.40 18.79L60.40 18.79L60.40 18.79Q59.82 19.15 59.09 19.32L59.09 19.32L59.09 19.32Q58.35 19.49 57.59 19.49L57.59 19.49L57.59 19.49Q56.81 19.49 56.07 19.33L56.07 19.33L56.07 19.33Q55.33 19.17 54.75 18.88L54.75 18.88L54.75 18.88Q54.17 18.59 53.81 18.19L53.81 18.19L53.81 18.19Q53.46 17.79 53.46 17.30L53.46 17.30L53.46 17.30Q53.46 17.01 53.55 16.80L53.55 16.80L53.55 16.80Q53.63 16.58 53.78 16.44L53.78 16.44L53.78 16.44Q53.93 16.30 54.12 16.24L54.12 16.24L54.12 16.24Q54.31 16.17 54.52 16.17L54.52 16.17L54.52 16.17Q54.84 16.17 55.06 16.24L55.06 16.24L55.06 16.24Q55.27 16.32 55.40 16.44L55.40 16.44L55.40 16.44Q55.54 16.56 55.62 16.71L55.62 16.71L55.62 16.71Q55.70 16.86 55.77 17.03L55.77 17.03L55.77 17.03Q55.85 17.19 55.94 17.35L55.94 17.35L55.94 17.35Q56.03 17.50 56.18 17.62L56.18 17.62L56.18 17.62Q56.33 17.74 56.56 17.81L56.56 17.81L56.56 17.81Q56.80 17.89 57.16 17.89L57.16 17.89L57.16 17.89Q57.74 17.89 58.02 17.79L58.02 17.79L58.02 17.79Q58.30 17.68 58.30 17.38L58.30 17.38L58.30 17.38Q58.30 17.27 58.10 17.17L58.10 17.17L58.10 17.17Q57.89 17.06 57.57 16.95L57.57 16.95L57.57 16.95Q57.24 16.83 56.81 16.69L56.81 16.69L56.81 16.69Q56.39 16.54 55.95 16.35L55.95 16.35L55.95 16.35Q55.51 16.15 55.09 15.90L55.09 15.90L55.09 15.90Q54.67 15.64 54.34 15.30L54.34 15.30L54.34 15.30Q54.01 14.96 53.81 14.53L53.81 14.53L53.81 14.53Q53.61 14.09 53.61 13.54L53.61 13.54L53.61 13.54Q53.61 12.93 53.76 12.44L53.76 12.44L53.76 12.44Q53.91 11.96 54.18 11.60L54.18 11.60L54.18 11.60Q54.45 11.23 54.82 10.98L54.82 10.98L54.82 10.98Q55.20 10.73 55.64 10.56L55.64 10.56L55.64 10.56Q56.09 10.40 56.59 10.33L56.59 10.33L56.59 10.33Q57.09 10.26 57.61 10.26L57.61 10.26L57.61 10.26Q58.52 10.26 59.17 10.43L59.17 10.43L59.17 10.43Q59.82 10.60 60.24 10.87L60.24 10.87L60.24 10.87Q60.66 11.14 60.86 11.47L60.86 11.47L60.86 11.47Q61.06 11.80 61.06 12.12L61.06 12.12L61.06 12.12Q61.06 12.35 60.97 12.55L60.97 12.55L60.97 12.55Q60.87 12.75 60.70 12.90L60.70 12.90L60.70 12.90Q60.52 13.05 60.27 13.14L60.27 13.14L60.27 13.14Q60.01 13.23 59.68 13.23L59.68 13.23L59.68 13.23Q59.32 13.23 59.08 13.19L59.08 13.19L59.08 13.19Q58.84 13.15 58.70 13.07L58.70 13.07L58.70 13.07Q58.56 13.00 58.51 12.90L58.51 12.90L58.51 12.90Q58.45 12.80 58.45 12.68L58.45 12.68L58.45 12.68Q58.45 12.56 58.50 12.50L58.50 12.50L58.50 12.50Q58.54 12.43 58.58 12.38L58.58 12.38L58.58 12.38Q58.63 12.32 58.67 12.25L58.67 12.25L58.67 12.25Q58.71 12.18 58.71 12.05ZM66.85 17.92L66.85 17.92L66.85 17.92Q67.07 17.92 67.21 17.85L67.21 17.85L67.21 17.85Q67.35 17.77 67.43 17.64L67.43 17.64L67.43 17.64Q67.50 17.51 67.53 17.31L67.53 17.31L67.53 17.31Q67.55 17.12 67.55 16.87L67.55 16.87L67.55 16.87Q67.55 16.66 67.55 16.33L67.55 16.33L67.55 16.33Q67.54 16.00 67.53 15.69L67.53 15.69L67.53 15.69Q67.52 15.32 67.51 14.92L67.51 14.92L67.51 14.92Q67.42 14.91 67.33 14.90L67.33 14.90L67.33 14.90Q67.25 14.89 67.16 14.89L67.16 14.89L67.16 14.89Q66.81 14.89 66.58 15.03L66.58 15.03L66.58 15.03Q66.34 15.17 66.20 15.42L66.20 15.42L66.20 15.42Q66.06 15.67 66.00 16.01L66.00 16.01L66.00 16.01Q65.94 16.34 65.94 16.74L65.94 16.74L65.94 16.74Q65.94 16.98 65.97 17.20L65.97 17.20L65.97 17.20Q65.99 17.41 66.09 17.57L66.09 17.57L66.09 17.57Q66.19 17.73 66.37 17.82L66.37 17.82L66.37 17.82Q66.55 17.92 66.85 17.92ZM70.14 19.32L70.14 19.32L70.14 19.32Q69.79 19.32 69.45 19.28L69.45 19.28L69.45 19.28Q69.10 19.24 68.79 19.13L68.79 19.13L68.79 19.13Q68.48 19.01 68.22 18.79L68.22 18.79L68.22 18.79Q67.96 18.57 67.78 18.21L67.78 18.21L67.78 18.21Q67.64 18.53 67.34 18.77L67.34 18.77L67.34 18.77Q67.03 19.01 66.65 19.17L66.65 19.17L66.65 19.17Q66.26 19.33 65.83 19.41L65.83 19.41L65.83 19.41Q65.41 19.49 65.02 19.49L65.02 19.49L65.02 19.49Q64.33 19.49 63.81 19.33L63.81 19.33L63.81 19.33Q63.29 19.16 62.93 18.86L62.93 18.86L62.93 18.86Q62.58 18.55 62.40 18.13L62.40 18.13L62.40 18.13Q62.22 17.71 62.22 17.18L62.22 17.18L62.22 17.18Q62.22 16.56 62.43 16.00L62.43 16.00L62.43 16.00Q62.64 15.44 63.14 15.03L63.14 15.03L63.14 15.03Q63.64 14.61 64.48 14.37L64.48 14.37L64.48 14.37Q65.32 14.12 66.59 14.12L66.59 14.12L67.53 14.12L67.53 14.12Q67.53 13.36 67.47 12.87L67.47 12.87L67.47 12.87Q67.42 12.37 67.31 12.07L67.31 12.07L67.31 12.07Q67.20 11.78 67.04 11.66L67.04 11.66L67.04 11.66Q66.88 11.55 66.64 11.55L66.64 11.55L66.64 11.55Q66.38 11.55 66.21 11.70L66.21 11.70L66.21 11.70Q66.04 11.86 65.93 12.16L65.93 12.16L65.93 12.16Q65.82 12.46 65.78 12.88L65.78 12.88L65.78 12.88Q65.73 13.30 65.73 13.83L65.73 13.83L65.73 13.83Q65.44 13.83 65.12 13.82L65.12 13.82L65.12 13.82Q64.79 13.81 64.47 13.77L64.47 13.77L64.47 13.77Q64.16 13.73 63.87 13.64L63.87 13.64L63.87 13.64Q63.59 13.56 63.37 13.41L63.37 13.41L63.37 13.41Q63.15 13.26 63.02 13.04L63.02 13.04L63.02 13.04Q62.89 12.81 62.89 12.49L62.89 12.49L62.89 12.49Q62.89 12.04 63.13 11.63L63.13 11.63L63.13 11.63Q63.36 11.23 63.85 10.93L63.85 10.93L63.85 10.93Q64.34 10.62 65.09 10.44L65.09 10.44L65.09 10.44Q65.84 10.26 66.88 10.26L66.88 10.26L66.88 10.26Q68.09 10.26 68.97 10.51L68.97 10.51L68.97 10.51Q69.84 10.75 70.41 11.25L70.41 11.25L70.41 11.25Q70.97 11.74 71.24 12.49L71.24 12.49L71.24 12.49Q71.51 13.23 71.51 14.24L71.51 14.24L71.51 16.66L71.51 16.66Q71.51 16.95 71.59 17.12L71.59 17.12L71.59 17.12Q71.67 17.28 71.78 17.37L71.78 17.37L71.78 17.37Q71.89 17.45 72.03 17.49L72.03 17.49L72.03 17.49Q72.17 17.52 72.28 17.56L72.28 17.56L72.28 17.56Q72.39 17.60 72.47 17.66L72.47 17.66L72.47 17.66Q72.55 17.73 72.55 17.88L72.55 17.88L72.55 17.88Q72.55 18.56 71.94 18.94L71.94 18.94L71.94 18.94Q71.33 19.32 70.14 19.32ZM78.22 13.06L78.20 16.69L78.20 16.69Q78.20 16.97 78.28 17.12L78.28 17.12L78.28 17.12Q78.35 17.28 78.47 17.36L78.47 17.36L78.47 17.36Q78.58 17.44 78.71 17.47L78.71 17.47L78.71 17.47Q78.84 17.50 78.95 17.53L78.95 17.53L78.95 17.53Q79.06 17.57 79.14 17.63L79.14 17.63L79.14 17.63Q79.21 17.70 79.21 17.85L79.21 17.85L79.21 17.85Q79.21 18.63 78.41 18.97L78.41 18.97L78.41 18.97Q77.60 19.32 76.08 19.32L76.08 19.32L76.08 19.32Q75.34 19.32 74.77 19.24L74.77 19.24L74.77 19.24Q74.20 19.15 73.81 18.97L73.81 18.97L73.81 18.97Q73.42 18.79 73.22 18.52L73.22 18.52L73.22 18.52Q73.02 18.24 73.02 17.85L73.02 17.85L73.02 17.85Q73.02 17.70 73.10 17.63L73.10 17.63L73.10 17.63Q73.17 17.57 73.28 17.53L73.28 17.53L73.28 17.53Q73.39 17.50 73.52 17.47L73.52 17.47L73.52 17.47Q73.65 17.45 73.76 17.37L73.76 17.37L73.76 17.37Q73.87 17.29 73.94 17.14L73.94 17.14L73.94 17.14Q74.02 16.99 74.02 16.71L74.02 16.71L74.02 13.06L74.02 13.06Q74.02 12.79 73.94 12.64L73.94 12.64L73.94 12.64Q73.87 12.49 73.76 12.41L73.76 12.41L73.76 12.41Q73.65 12.33 73.52 12.30L73.52 12.30L73.52 12.30Q73.39 12.28 73.28 12.24L73.28 12.24L73.28 12.24Q73.17 12.21 73.10 12.14L73.10 12.14L73.10 12.14Q73.02 12.08 73.02 11.93L73.02 11.93L73.02 11.93Q73.02 11.54 73.22 11.26L73.22 11.26L73.22 11.26Q73.42 10.99 73.81 10.80L73.81 10.80L73.81 10.80Q74.20 10.62 74.77 10.54L74.77 10.54L74.77 10.54Q75.34 10.46 76.08 10.46L76.08 10.46L76.08 10.46Q76.75 10.46 77.14 10.57L77.14 10.57L77.14 10.57Q77.54 10.68 77.76 10.82L77.76 10.82L77.76 10.82Q78.01 10.99 78.11 11.18L78.11 11.18L78.11 11.18Q78.46 10.93 78.96 10.73L78.96 10.73L78.96 10.73Q79.38 10.55 79.99 10.40L79.99 10.40L79.99 10.40Q80.60 10.26 81.42 10.26L81.42 10.26L81.42 10.26Q82.17 10.26 82.72 10.45L82.72 10.45L82.72 10.45Q83.26 10.64 83.64 10.95L83.64 10.95L83.64 10.95Q84.02 11.27 84.25 11.69L84.25 11.69L84.25 11.69Q84.49 12.11 84.61 12.57L84.61 12.57L84.61 12.57Q84.74 13.03 84.78 13.50L84.78 13.50L84.78 13.50Q84.83 13.97 84.83 14.39L84.83 14.39L84.83 16.65L84.83 16.65Q84.83 16.94 84.90 17.10L84.90 17.10L84.90 17.10Q84.98 17.26 85.09 17.35L85.09 17.35L85.09 17.35Q85.21 17.43 85.34 17.46L85.34 17.46L85.34 17.46Q85.48 17.49 85.59 17.53L85.59 17.53L85.59 17.53Q85.71 17.57 85.78 17.63L85.78 17.63L85.78 17.63Q85.86 17.70 85.86 17.85L85.86 17.85L85.86 17.85Q85.86 18.63 85.06 18.97L85.06 18.97L85.06 18.97Q84.25 19.32 82.73 19.32L82.73 19.32L82.73 19.32Q81.99 19.32 81.42 19.24L81.42 19.24L81.42 19.24Q80.86 19.15 80.47 18.97L80.47 18.97L80.47 18.97Q80.08 18.79 79.87 18.52L79.87 18.52L79.87 18.52Q79.67 18.24 79.67 17.85L79.67 17.85L79.67 17.85Q79.67 17.70 79.75 17.63L79.75 17.63L79.75 17.63Q79.82 17.57 79.94 17.53L79.94 17.53L79.94 17.53Q80.06 17.50 80.19 17.47L80.19 17.47L80.19 17.47Q80.32 17.45 80.43 17.37L80.43 17.37L80.43 17.37Q80.55 17.29 80.62 17.14L80.62 17.14L80.62 17.14Q80.70 16.99 80.70 16.71L80.70 16.71L80.70 13.79L80.70 13.79Q80.70 13.37 80.63 13.04L80.63 13.04L80.63 13.04Q80.57 12.71 80.41 12.48L80.41 12.48L80.41 12.48Q80.26 12.25 80.01 12.13L80.01 12.13L80.01 12.13Q79.75 12.01 79.38 12.01L79.38 12.01L79.38 12.01Q79.14 12.01 78.93 12.09L78.93 12.09L78.93 12.09Q78.72 12.17 78.56 12.31L78.56 12.31L78.56 12.31Q78.40 12.45 78.31 12.64L78.31 12.64L78.31 12.64Q78.22 12.84 78.22 13.06L78.22 13.06ZM96.74 8.02L96.71 16.69L96.71 16.69Q96.71 16.97 96.79 17.12L96.79 17.12L96.79 17.12Q96.87 17.28 96.97 17.36L96.97 17.36L96.97 17.36Q97.08 17.44 97.22 17.47L97.22 17.47L97.22 17.47Q97.35 17.50 97.46 17.53L97.46 17.53L97.46 17.53Q97.57 17.57 97.64 17.63L97.64 17.63L97.64 17.63Q97.72 17.70 97.72 17.85L97.72 17.85L97.72 17.85Q97.72 18.63 96.91 18.97L96.91 18.97L96.91 18.97Q96.11 19.32 94.58 19.32L94.58 19.32L94.58 19.32Q94.17 19.32 93.86 19.26L93.86 19.26L93.86 19.26Q93.56 19.20 93.33 19.08L93.33 19.08L93.33 19.08Q93.11 18.97 92.97 18.81L92.97 18.81L92.97 18.81Q92.83 18.65 92.74 18.45L92.74 18.45L92.74 18.45Q92.56 18.61 92.30 18.80L92.30 18.80L92.30 18.80Q92.05 18.98 91.68 19.14L91.68 19.14L91.68 19.14Q91.31 19.29 90.84 19.39L90.84 19.39L90.84 19.39Q90.36 19.49 89.76 19.49L89.76 19.49L89.76 19.49Q89.07 19.49 88.54 19.30L88.54 19.30L88.54 19.30Q88.01 19.11 87.62 18.77L87.62 18.77L87.62 18.77Q87.23 18.44 86.97 18.00L86.97 18.00L86.97 18.00Q86.71 17.55 86.56 17.05L86.56 17.05L86.56 17.05Q86.40 16.54 86.33 16.00L86.33 16.00L86.33 16.00Q86.27 15.46 86.27 14.94L86.27 14.94L86.27 14.94Q86.27 14.40 86.35 13.84L86.35 13.84L86.35 13.84Q86.43 13.29 86.61 12.77L86.61 12.77L86.61 12.77Q86.79 12.25 87.07 11.79L87.07 11.79L87.07 11.79Q87.36 11.33 87.76 11.00L87.76 11.00L87.76 11.00Q88.17 10.66 88.71 10.46L88.71 10.46L88.71 10.46Q89.26 10.26 89.95 10.26L89.95 10.26L89.95 10.26Q90.43 10.26 90.83 10.33L90.83 10.33L90.83 10.33Q91.23 10.40 91.54 10.52L91.54 10.52L91.54 10.52Q91.86 10.64 92.10 10.79L92.10 10.79L92.10 10.79Q92.35 10.94 92.52 11.09L92.52 11.09L92.52 9.03L92.52 9.03Q92.52 8.75 92.45 8.60L92.45 8.60L92.45 8.60Q92.38 8.46 92.27 8.38L92.27 8.38L92.27 8.38Q92.16 8.30 92.03 8.27L92.03 8.27L92.03 8.27Q91.90 8.24 91.79 8.21L91.79 8.21L91.79 8.21Q91.68 8.18 91.60 8.11L91.60 8.11L91.60 8.11Q91.53 8.05 91.53 7.90L91.53 7.90L91.53 7.90Q91.53 7.51 91.73 7.23L91.73 7.23L91.73 7.23Q91.94 6.95 92.33 6.77L92.33 6.77L92.33 6.77Q92.72 6.59 93.28 6.51L93.28 6.51L93.28 6.51Q93.85 6.43 94.58 6.43L94.58 6.43L94.58 6.43Q95.32 6.43 95.75 6.50L95.75 6.50L95.75 6.50Q96.17 6.58 96.40 6.76L96.40 6.76L96.40 6.76Q96.62 6.94 96.68 7.25L96.68 7.25L96.68 7.25Q96.74 7.55 96.74 8.02L96.74 8.02ZM91.53 17.75L91.53 17.75L91.53 17.75Q91.81 17.75 92.07 17.66L92.07 17.66L92.07 17.66Q92.34 17.56 92.54 17.45L92.54 17.45L92.54 17.45Q92.52 17.27 92.52 17.09L92.52 17.09L92.52 17.09Q92.52 16.91 92.52 16.71L92.52 16.71L92.52 12.39L92.52 12.39Q92.29 12.25 92.01 12.13L92.01 12.13L92.01 12.13Q91.73 12.01 91.44 12.01L91.44 12.01L91.44 12.01Q91.12 12.01 90.92 12.15L90.92 12.15L90.92 12.15Q90.72 12.30 90.60 12.64L90.60 12.64L90.60 12.64Q90.49 12.97 90.44 13.55L90.44 13.55L90.44 13.55Q90.40 14.12 90.40 14.96L90.40 14.96L90.40 14.96Q90.40 15.48 90.43 15.98L90.43 15.98L90.43 15.98Q90.47 16.47 90.58 16.87L90.58 16.87L90.58 16.87Q90.70 17.26 90.92 17.51L90.92 17.51L90.92 17.51Q91.15 17.75 91.53 17.75ZM103.51 12.81L104.77 14.95L105.78 12.81L105.78 12.81Q105.83 12.69 105.84 12.64L105.84 12.64L105.84 12.64Q105.85 12.58 105.85 12.52L105.85 12.52L105.85 12.43L105.85 12.43Q105.85 12.34 105.71 12.25L105.71 12.25L105.71 12.25Q105.57 12.16 105.40 12.07L105.40 12.07L105.40 12.07Q105.23 11.97 105.09 11.86L105.09 11.86L105.09 11.86Q104.95 11.75 104.95 11.62L104.95 11.62L104.95 11.62Q104.95 11.26 105.22 11.03L105.22 11.03L105.22 11.03Q105.49 10.80 105.89 10.67L105.89 10.67L105.89 10.67Q106.29 10.55 106.74 10.50L106.74 10.50L106.74 10.50Q107.20 10.46 107.58 10.46L107.58 10.46L107.58 10.46Q108.47 10.46 108.95 10.73L108.95 10.73L108.95 10.73Q109.44 11.00 109.44 11.62L109.44 11.62L109.44 11.62Q109.44 11.78 109.34 11.86L109.34 11.86L109.34 11.86Q109.25 11.95 109.10 12.00L109.10 12.00L109.10 12.00Q108.95 12.06 108.76 12.10L108.76 12.10L108.76 12.10Q108.58 12.15 108.39 12.23L108.39 12.23L108.39 12.23Q108.21 12.31 108.04 12.44L108.04 12.44L108.04 12.44Q107.88 12.58 107.77 12.81L107.77 12.81L104.36 20.19L104.36 20.19Q103.96 21.06 103.55 21.67L103.55 21.67L103.55 21.67Q103.15 22.27 102.74 22.65L102.74 22.65L102.74 22.65Q102.33 23.03 101.93 23.20L101.93 23.20L101.93 23.20Q101.53 23.37 101.14 23.37L101.14 23.37L101.14 23.37Q100.67 23.37 100.25 23.15L100.25 23.15L100.25 23.15Q99.83 22.93 99.52 22.59L99.52 22.59L99.52 22.59Q99.22 22.24 99.04 21.82L99.04 21.82L99.04 21.82Q98.86 21.40 98.86 20.97L98.86 20.97L98.86 20.97Q98.86 20.43 98.98 20.07L98.98 20.07L98.98 20.07Q99.10 19.70 99.29 19.48L99.29 19.48L99.29 19.48Q99.48 19.26 99.73 19.16L99.73 19.16L99.73 19.16Q99.97 19.07 100.22 19.07L100.22 19.07L100.22 19.07Q100.53 19.07 100.74 19.21L100.74 19.21L100.74 19.21Q100.95 19.36 101.09 19.57L101.09 19.57L101.09 19.57Q101.23 19.79 101.31 20.05L101.31 20.05L101.31 20.05Q101.40 20.30 101.47 20.52L101.47 20.52L101.47 20.52Q101.53 20.73 101.60 20.88L101.60 20.88L101.60 20.88Q101.66 21.03 101.75 21.03L101.75 21.03L101.75 21.03Q101.81 21.03 101.90 20.94L101.90 20.94L101.90 20.94Q101.99 20.84 102.12 20.63L102.12 20.63L102.12 20.63Q102.24 20.41 102.40 20.06L102.40 20.06L102.40 20.06Q102.57 19.71 102.79 19.21L102.79 19.21L99.33 12.81L99.33 12.81Q99.20 12.57 99.03 12.44L99.03 12.44L99.03 12.44Q98.87 12.30 98.70 12.23L98.70 12.23L98.70 12.23Q98.53 12.16 98.38 12.12L98.38 12.12L98.38 12.12Q98.22 12.09 98.09 12.03L98.09 12.03L98.09 12.03Q97.97 11.98 97.89 11.89L97.89 11.89L97.89 11.89Q97.82 11.81 97.82 11.62L97.82 11.62L97.82 11.62Q97.82 11.37 97.95 11.18L97.95 11.18L97.95 11.18Q98.08 11.00 98.30 10.87L98.30 10.87L98.30 10.87Q98.53 10.74 98.83 10.66L98.83 10.66L98.83 10.66Q99.14 10.58 99.49 10.54L99.49 10.54L99.49 10.54Q99.85 10.49 100.23 10.48L100.23 10.48L100.23 10.48Q100.61 10.46 100.99 10.46L100.99 10.46L100.99 10.46Q101.77 10.46 102.35 10.51L102.35 10.51L102.35 10.51Q102.94 10.55 103.32 10.68L103.32 10.68L103.32 10.68Q103.71 10.81 103.90 11.04L103.90 11.04L103.90 11.04Q104.08 11.27 104.08 11.62L104.08 11.62L104.08 11.62Q104.08 11.75 103.96 11.85L103.96 11.85L103.96 11.85Q103.84 11.94 103.69 12.02L103.69 12.02L103.69 12.02Q103.55 12.11 103.43 12.19L103.43 12.19L103.43 12.19Q103.30 12.26 103.30 12.37L103.30 12.37L103.30 12.37Q103.30 12.39 103.32 12.43L103.32 12.43L103.32 12.43Q103.35 12.50 103.39 12.58L103.39 12.58L103.39 12.58Q103.43 12.66 103.51 12.81L103.51 12.81Z"></path></g><!----><!----></svg>