<svg data-v-fde0c5aa="" xmlns="http://www.w3.org/2000/svg" viewBox="0 0 300 300" class="iconLeft"><!----><defs data-v-fde0c5aa=""><!----></defs><rect data-v-fde0c5aa="" fill="transparent" x="0" y="0" width="300px" height="300px" class="logo-background-square"></rect><defs data-v-fde0c5aa=""><!----></defs><g data-v-fde0c5aa="" id="969d59dd-b200-4cb9-bffe-2798c2881671" fill="#E0D8D8" transform="matrix(1.8887723262757488,0,0,1.8887723262757488,96.47009483705804,135.71143746880674)"><path d="M2.59 10.50L2.59 10.50Q2.27 10.50 1.83 10.26L1.83 10.26L1.83 10.26Q1.39 10.02 1.06 9.70L1.06 9.70L1.06 9.70Q0.73 9.38 0.73 9.17L0.73 9.17L0.73 9.17Q0.73 8.81 1.41 5.46L1.41 5.46L1.41 5.46Q1.50 5.07 1.69 4.12L1.69 4.12L1.69 4.12Q1.88 3.18 1.95 2.76L1.95 2.76L1.43 2.84L1.43 2.84Q0.99 2.44 0.99 1.82L0.99 1.82L0.99 1.82Q0.99 1.39 1.23 0.92L1.23 0.92L1.23 0.92Q2.37 0.63 3.53 0.63L3.53 0.63L3.53 0.63Q4.76 0.63 5.82 0.95L5.82 0.95L5.82 0.95Q6.87 1.27 7.53 1.94L7.53 1.94L7.53 1.94Q8.19 2.60 8.19 3.60L8.19 3.60L8.19 3.60Q8.19 4.48 7.61 5.27L7.61 5.27L7.61 5.27Q7.03 6.06 5.92 6.58L5.92 6.58L5.92 6.58Q4.82 7.10 3.32 7.21L3.32 7.21L3.32 7.21Q3.22 7.88 3.16 8.43L3.16 8.43L3.16 8.43Q3.04 9.49 2.93 10.00L2.93 10.00L2.93 10.00Q2.81 10.50 2.59 10.50L2.59 10.50ZM3.53 5.47L3.53 5.47Q4.75 5.24 5.41 4.74L5.41 4.74L5.41 4.74Q6.08 4.24 6.08 3.63L6.08 3.63L6.08 3.63Q6.08 3.21 5.66 2.92L5.66 2.92L5.66 2.92Q5.25 2.63 4.55 2.63L4.55 2.63L4.55 2.63Q4.30 2.63 4.00 2.67L4.00 2.67L3.78 3.99L3.78 3.99Q3.58 5.10 3.53 5.47L3.53 5.47ZM11.13 10.50L11.13 10.50Q10.46 10.50 9.73 10.06L9.73 10.06L9.73 10.06Q9.00 9.62 8.53 8.97L8.53 8.97L8.53 8.97Q8.05 8.33 8.05 7.76L8.05 7.76L8.05 7.76Q8.05 6.73 8.53 5.52L8.53 5.52L8.53 5.52Q9.02 4.30 9.87 3.45L9.87 3.45L9.87 3.45Q10.72 2.60 11.80 2.60L11.80 2.60L11.80 2.60Q12.57 2.60 13.20 2.94L13.20 2.94L13.20 2.94Q13.82 3.28 14.17 3.78L14.17 3.78L14.17 3.78Q14.52 4.28 14.52 4.76L14.52 4.76L14.52 4.76Q14.52 5.35 13.99 5.92L13.99 5.92L13.99 5.92Q13.45 6.48 12.50 6.91L12.50 6.91L12.50 6.91Q11.55 7.34 10.33 7.52L10.33 7.52L10.33 7.52Q10.32 7.69 10.32 8.02L10.32 8.02L10.32 8.02Q10.32 8.44 10.35 8.65L10.35 8.65L10.35 8.65Q11.05 8.58 11.73 8.27L11.73 8.27L11.73 8.27Q12.42 7.97 13.23 7.41L13.23 7.41L13.23 7.41Q13.78 7.57 14.06 7.94L14.06 7.94L14.06 7.94Q14.34 8.30 14.34 8.81L14.34 8.81L14.34 8.81Q14.34 9.23 13.82 9.63L13.82 9.63L13.82 9.63Q13.31 10.02 12.56 10.26L12.56 10.26L12.56 10.26Q11.80 10.50 11.13 10.50L11.13 10.50ZM10.54 6.47L10.54 6.47Q11.40 6.16 11.97 5.68L11.97 5.68L11.97 5.68Q12.54 5.21 12.54 4.87L12.54 4.87L12.54 4.87Q12.54 4.48 12.00 4.34L12.00 4.34L12.00 4.34Q11.47 4.73 11.09 5.28L11.09 5.28L11.09 5.28Q10.72 5.82 10.54 6.47L10.54 6.47ZM21.84 8.44L21.84 8.44Q22.69 8.02 23.28 7.55L23.28 7.55L23.28 7.55Q23.90 7.76 24.20 8.13L24.20 8.13L24.20 8.13Q24.50 8.50 24.50 8.97L24.50 8.97L24.50 8.97Q24.50 9.31 24.02 9.67L24.02 9.67L24.02 9.67Q23.55 10.02 22.89 10.26L22.89 10.26L22.89 10.26Q22.23 10.50 21.77 10.50L21.77 10.50L21.77 10.50Q21.45 10.50 21.04 10.26L21.04 10.26L21.04 10.26Q20.62 10.02 20.32 9.70L20.32 9.70L20.32 9.70Q20.02 9.38 20.02 9.20L20.02 9.20L20.02 9.20Q20.02 9.06 20.14 8.82L20.14 8.82L20.14 8.82Q20.26 8.58 20.40 8.33L20.40 8.33L20.40 8.33Q20.54 8.08 20.58 7.99L20.58 7.99L20.23 7.80L20.23 7.80Q19.49 9.02 18.81 9.76L18.81 9.76L18.81 9.76Q18.13 10.50 17.47 10.50L17.47 10.50L17.47 10.50Q17.02 10.50 16.53 10.11L16.53 10.11L16.53 10.11Q16.03 9.72 15.69 9.16L15.69 9.16L15.69 9.16Q15.34 8.60 15.34 8.16L15.34 8.16L15.34 8.16Q15.34 6.92 15.86 5.61L15.86 5.61L15.86 5.61Q16.38 4.31 17.31 3.46L17.31 3.46L17.31 3.46Q18.24 2.60 19.42 2.60L19.42 2.60L19.42 2.60Q19.84 2.60 20.27 2.98L20.27 2.98L20.27 2.98Q20.71 3.36 20.83 3.75L20.83 3.75L20.83 3.75Q20.90 3.44 21.04 3.21L21.04 3.21L21.04 3.21Q21.17 2.98 21.32 2.98L21.32 2.98L21.32 2.98Q21.69 2.98 22.13 3.24L22.13 3.24L22.13 3.24Q22.57 3.50 22.88 3.84L22.88 3.84L22.88 3.84Q23.18 4.19 23.18 4.38L23.18 4.38L23.18 4.38Q23.17 4.65 22.97 5.26L22.97 5.26L22.97 5.26Q22.76 5.88 22.32 7.14L22.32 7.14L22.32 7.14Q22.05 7.83 21.84 8.44L21.84 8.44ZM17.54 8.55L17.54 8.55Q18.68 7.85 19.52 6.82L19.52 6.82L19.52 6.82Q20.36 5.80 20.66 4.55L20.66 4.55L20.66 4.55Q20.29 4.38 19.95 4.38L19.95 4.38L19.95 4.38Q19.29 4.38 18.77 4.97L18.77 4.97L18.77 4.97Q18.26 5.56 17.95 6.51L17.95 6.51L17.95 6.51Q17.64 7.46 17.54 8.55L17.54 8.55ZM27.43 8.65L27.43 8.65Q28.74 8.60 29.86 7.29L29.86 7.29L29.86 7.29Q30.55 7.42 30.96 7.81L30.96 7.81L30.96 7.81Q31.37 8.20 31.37 8.81L31.37 8.81L31.37 8.81Q31.37 9.24 30.88 9.63L30.88 9.63L30.88 9.63Q30.38 10.02 29.64 10.26L29.64 10.26L29.64 10.26Q28.90 10.50 28.21 10.50L28.21 10.50L28.21 10.50Q27.54 10.50 26.81 10.06L26.81 10.06L26.81 10.06Q26.08 9.62 25.61 8.97L25.61 8.97L25.61 8.97Q25.13 8.33 25.13 7.76L25.13 7.76L25.13 7.76Q25.13 6.65 25.64 5.44L25.64 5.44L25.64 5.44Q26.15 4.23 27.06 3.42L27.06 3.42L27.06 3.42Q27.97 2.60 29.11 2.60L29.11 2.60L29.11 2.60Q29.81 2.60 30.44 2.86L30.44 2.86L30.44 2.86Q31.07 3.11 31.44 3.53L31.44 3.53L31.44 3.53Q31.82 3.95 31.82 4.40L31.82 4.40L31.82 4.40Q31.82 4.83 31.44 5.17L31.44 5.17L31.44 5.17Q31.07 5.52 30.45 5.52L30.45 5.52L30.45 5.52Q30.25 5.52 30.04 5.47L30.04 5.47L30.04 5.47Q29.69 4.62 29.27 4.27L29.27 4.27L29.27 4.27Q28.35 4.87 27.87 5.95L27.87 5.95L27.87 5.95Q27.40 7.03 27.40 8.15L27.40 8.15L27.40 8.15Q27.40 8.32 27.43 8.65L27.43 8.65ZM35.43 10.50L35.43 10.50Q34.76 10.50 34.03 10.06L34.03 10.06L34.03 10.06Q33.31 9.62 32.83 8.97L32.83 8.97L32.83 8.97Q32.35 8.33 32.35 7.76L32.35 7.76L32.35 7.76Q32.35 6.73 32.84 5.52L32.84 5.52L32.84 5.52Q33.32 4.30 34.17 3.45L34.17 3.45L34.17 3.45Q35.03 2.60 36.11 2.60L36.11 2.60L36.11 2.60Q36.88 2.60 37.50 2.94L37.50 2.94L37.50 2.94Q38.12 3.28 38.47 3.78L38.47 3.78L38.47 3.78Q38.82 4.28 38.82 4.76L38.82 4.76L38.82 4.76Q38.82 5.35 38.29 5.92L38.29 5.92L38.29 5.92Q37.76 6.48 36.81 6.91L36.81 6.91L36.81 6.91Q35.85 7.34 34.64 7.52L34.64 7.52L34.64 7.52Q34.62 7.69 34.62 8.02L34.62 8.02L34.62 8.02Q34.62 8.44 34.65 8.65L34.65 8.65L34.65 8.65Q35.35 8.58 36.04 8.27L36.04 8.27L36.04 8.27Q36.72 7.97 37.53 7.41L37.53 7.41L37.53 7.41Q38.08 7.57 38.36 7.94L38.36 7.94L38.36 7.94Q38.64 8.30 38.64 8.81L38.64 8.81L38.64 8.81Q38.64 9.23 38.13 9.63L38.13 9.63L38.13 9.63Q37.62 10.02 36.86 10.26L36.86 10.26L36.86 10.26Q36.11 10.50 35.43 10.50L35.43 10.50ZM34.85 6.47L34.85 6.47Q35.70 6.16 36.27 5.68L36.27 5.68L36.27 5.68Q36.85 5.21 36.85 4.87L36.85 4.87L36.85 4.87Q36.85 4.48 36.30 4.34L36.30 4.34L36.30 4.34Q35.77 4.73 35.40 5.28L35.40 5.28L35.40 5.28Q35.03 5.82 34.85 6.47L34.85 6.47ZM47.77 4.19L47.77 4.19Q47.88 3.49 47.88 3.07L47.88 3.07L47.88 3.07Q47.88 2.77 47.83 2.60L47.83 2.60L47.83 2.60Q47.78 2.44 47.71 2.44L47.71 2.44L47.71 2.44Q47.50 2.44 47.23 2.79L47.23 2.79L47.23 2.79Q46.96 3.14 46.77 3.62L46.77 3.62L46.77 3.62Q46.58 4.10 46.58 4.48L46.58 4.48L46.58 4.48Q46.58 4.96 47.05 5.44L47.05 5.44L47.05 5.44Q47.52 5.92 48.43 6.62L48.43 6.62L48.43 6.62Q49.11 7.13 49.45 7.46L49.45 7.46L49.45 7.46Q49.78 7.78 49.80 8.05L49.80 8.05L49.80 8.05Q49.81 8.64 49.18 9.21L49.18 9.21L49.18 9.21Q48.55 9.77 47.61 10.14L47.61 10.14L47.61 10.14Q46.66 10.50 45.85 10.50L45.85 10.50L45.85 10.50Q45.22 10.50 44.55 10.19L44.55 10.19L44.55 10.19Q43.88 9.87 43.43 9.44L43.43 9.44L43.43 9.44Q42.98 9.02 42.97 8.69L42.97 8.69L42.97 8.69Q42.94 8.08 43.37 7.69L43.37 7.69L43.37 7.69Q43.81 7.31 44.53 7.31L44.53 7.31L44.53 7.31Q44.90 7.31 45.28 7.41L45.28 7.41L45.28 7.41Q45.44 8.33 45.57 8.74L45.57 8.74L45.57 8.74Q46.40 8.53 47.36 8.01L47.36 8.01L47.36 8.01Q44.24 5.64 44.24 4.31L44.24 4.31L44.24 4.31Q44.24 3.67 44.72 2.76L44.72 2.76L44.72 2.76Q45.19 1.86 45.98 1.21L45.98 1.21L45.98 1.21Q46.76 0.56 47.63 0.56L47.63 0.56L47.63 0.56Q48.27 0.56 48.87 0.99L48.87 0.99L48.87 0.99Q49.48 1.43 49.85 2.06L49.85 2.06L49.85 2.06Q50.23 2.69 50.23 3.23L50.23 3.23L50.23 3.23Q50.23 3.77 49.80 4.08L49.80 4.08L49.80 4.08Q49.38 4.40 48.75 4.40L48.75 4.40L48.75 4.40Q48.26 4.40 47.77 4.19L47.77 4.19ZM56.87 8.44L56.87 8.44Q57.72 8.02 58.31 7.55L58.31 7.55L58.31 7.55Q58.93 7.76 59.23 8.13L59.23 8.13L59.23 8.13Q59.53 8.50 59.53 8.97L59.53 8.97L59.53 8.97Q59.53 9.31 59.05 9.67L59.05 9.67L59.05 9.67Q58.58 10.02 57.92 10.26L57.92 10.26L57.92 10.26Q57.26 10.50 56.80 10.50L56.80 10.50L56.80 10.50Q56.48 10.50 56.06 10.26L56.06 10.26L56.06 10.26Q55.65 10.02 55.35 9.70L55.35 9.70L55.35 9.70Q55.05 9.38 55.05 9.20L55.05 9.20L55.05 9.20Q55.05 9.06 55.17 8.82L55.17 8.82L55.17 8.82Q55.29 8.58 55.43 8.33L55.43 8.33L55.43 8.33Q55.57 8.08 55.61 7.99L55.61 7.99L55.26 7.80L55.26 7.80Q54.52 9.02 53.84 9.76L53.84 9.76L53.84 9.76Q53.16 10.50 52.50 10.50L52.50 10.50L52.50 10.50Q52.05 10.50 51.55 10.11L51.55 10.11L51.55 10.11Q51.06 9.72 50.72 9.16L50.72 9.16L50.72 9.16Q50.37 8.60 50.37 8.16L50.37 8.16L50.37 8.16Q50.37 6.92 50.89 5.61L50.89 5.61L50.89 5.61Q51.41 4.31 52.34 3.46L52.34 3.46L52.34 3.46Q53.27 2.60 54.45 2.60L54.45 2.60L54.45 2.60Q54.87 2.60 55.30 2.98L55.30 2.98L55.30 2.98Q55.73 3.36 55.86 3.75L55.86 3.75L55.86 3.75Q55.93 3.44 56.06 3.21L56.06 3.21L56.06 3.21Q56.20 2.98 56.35 2.98L56.35 2.98L56.35 2.98Q56.71 2.98 57.16 3.24L57.16 3.24L57.16 3.24Q57.60 3.50 57.90 3.84L57.90 3.84L57.90 3.84Q58.21 4.19 58.21 4.38L58.21 4.38L58.21 4.38Q58.20 4.65 58.00 5.26L58.00 5.26L58.00 5.26Q57.79 5.88 57.34 7.14L57.34 7.14L57.34 7.14Q57.08 7.83 56.87 8.44L56.87 8.44ZM52.57 8.55L52.57 8.55Q53.70 7.85 54.54 6.82L54.54 6.82L54.54 6.82Q55.38 5.80 55.69 4.55L55.69 4.55L55.69 4.55Q55.31 4.38 54.98 4.38L54.98 4.38L54.98 4.38Q54.32 4.38 53.80 4.97L53.80 4.97L53.80 4.97Q53.28 5.56 52.98 6.51L52.98 6.51L52.98 6.51Q52.67 7.46 52.57 8.55L52.57 8.55ZM67.55 7.55L67.55 7.55Q68.17 7.76 68.47 8.13L68.47 8.13L68.47 8.13Q68.77 8.50 68.77 8.97L68.77 8.97L68.77 8.97Q68.77 9.31 68.29 9.67L68.29 9.67L68.29 9.67Q67.82 10.02 67.16 10.26L67.16 10.26L67.16 10.26Q66.50 10.50 66.04 10.50L66.04 10.50L66.04 10.50Q65.72 10.50 65.30 10.25L65.30 10.25L65.30 10.25Q64.88 10.00 64.58 9.67L64.58 9.67L64.58 9.67Q64.27 9.34 64.27 9.16L64.27 9.16L64.27 9.16Q64.27 9.02 64.58 8.06L64.58 8.06L64.58 8.06Q65.13 6.40 65.13 5.96L65.13 5.96L65.13 5.96Q65.13 5.80 65.04 5.80L65.04 5.80L65.04 5.80Q64.48 5.80 62.96 7.76L62.96 7.76L62.96 7.76Q62.90 7.98 62.84 8.32L62.84 8.32L62.84 8.32Q62.78 8.65 62.75 8.79L62.75 8.79L62.75 8.79Q62.59 9.62 62.46 10.06L62.46 10.06L62.46 10.06Q62.33 10.50 62.12 10.50L62.12 10.50L62.12 10.50Q61.75 10.50 61.30 10.26L61.30 10.26L61.30 10.26Q60.84 10.01 60.52 9.68L60.52 9.68L60.52 9.68Q60.19 9.35 60.19 9.13L60.19 9.13L60.19 9.13Q60.19 8.88 60.37 8.39L60.37 8.39L60.37 8.39Q60.55 7.90 60.91 7.04L60.91 7.04L60.91 7.04Q61.19 6.38 61.33 6.01L61.33 6.01L61.33 6.01Q61.47 5.64 61.47 5.49L61.47 5.49L61.47 5.49Q61.47 5.38 61.34 5.24L61.34 5.24L61.34 5.24Q61.21 5.11 60.94 4.91L60.94 4.91L60.94 4.91Q60.63 4.68 60.49 4.54L60.49 4.54L60.49 4.54Q60.34 4.40 60.34 4.24L60.34 4.24L60.34 4.24Q60.34 3.95 60.61 3.56L60.61 3.56L60.61 3.56Q60.89 3.16 61.26 2.88L61.26 2.88L61.26 2.88Q61.63 2.60 61.89 2.60L61.89 2.60L61.89 2.60Q62.19 2.60 62.57 2.87L62.57 2.87L62.57 2.87Q62.96 3.14 63.24 3.48L63.24 3.48L63.24 3.48Q63.53 3.82 63.53 4.00L63.53 4.00L63.53 4.00Q63.53 4.34 63.45 4.83L63.45 4.83L63.45 4.83Q63.38 5.32 63.25 5.80L63.25 5.80L63.25 5.80Q64.27 4.45 64.95 3.72L64.95 3.72L64.95 3.72Q65.62 2.98 66.00 2.98L66.00 2.98L66.00 2.98Q66.26 2.98 66.64 3.25L66.64 3.25L66.64 3.25Q67.02 3.51 67.29 3.86L67.29 3.86L67.29 3.86Q67.56 4.20 67.56 4.38L67.56 4.38L67.56 4.38Q67.55 4.62 67.37 5.19L67.37 5.19L67.37 5.19Q67.19 5.77 66.85 6.72L66.85 6.72L66.85 6.72Q66.40 7.95 66.28 8.39L66.28 8.39L66.28 8.39Q66.71 8.16 66.95 8.00L66.95 8.00L66.95 8.00Q67.20 7.84 67.55 7.55L67.55 7.55ZM77.35 7.55L77.35 7.55Q77.97 7.76 78.27 8.13L78.27 8.13L78.27 8.13Q78.57 8.50 78.57 8.97L78.57 8.97L78.57 8.97Q78.57 9.31 78.09 9.67L78.09 9.67L78.09 9.67Q77.62 10.02 76.96 10.26L76.96 10.26L76.96 10.26Q76.30 10.50 75.84 10.50L75.84 10.50L75.84 10.50Q75.52 10.50 75.10 10.26L75.10 10.26L75.10 10.26Q74.69 10.02 74.39 9.70L74.39 9.70L74.39 9.70Q74.09 9.38 74.09 9.20L74.09 9.20L74.09 9.20Q74.09 9.06 74.21 8.82L74.21 8.82L74.21 8.82Q74.33 8.58 74.47 8.33L74.47 8.33L74.47 8.33Q74.61 8.08 74.65 7.99L74.65 7.99L74.30 7.80L74.30 7.80Q73.56 9.00 72.89 9.75L72.89 9.75L72.89 9.75Q72.23 10.50 71.62 10.50L71.62 10.50L71.62 10.50Q71.18 10.50 70.66 10.10L70.66 10.10L70.66 10.10Q70.14 9.70 69.78 9.15L69.78 9.15L69.78 9.15Q69.41 8.60 69.41 8.16L69.41 8.16L69.41 8.16Q69.41 6.86 69.96 5.56L69.96 5.56L69.96 5.56Q70.50 4.27 71.41 3.44L71.41 3.44L71.41 3.44Q72.31 2.60 73.32 2.60L73.32 2.60L73.32 2.60Q73.72 2.60 74.15 2.81L74.15 2.81L74.15 2.81Q74.58 3.02 74.96 3.39L74.96 3.39L74.96 3.39Q75.08 2.03 75.08 0.35L75.08 0.35L75.08 0.35Q75.08 0.06 75.27-0.15L75.27-0.15L75.27-0.15Q75.46-0.35 75.73-0.35L75.73-0.35L75.73-0.35Q76.12-0.35 76.60-0.07L76.60-0.07L76.60-0.07Q77.08 0.21 77.42 0.60L77.42 0.60L77.42 0.60Q77.76 0.98 77.76 1.22L77.76 1.22L77.76 1.22Q77.76 1.54 77.62 2.04L77.62 2.04L77.62 2.04Q77.48 2.53 77.11 3.64L77.11 3.64L77.11 3.64Q76.61 5.14 76.48 5.70L76.48 5.70L76.48 5.70Q76.10 7.22 75.91 8.44L75.91 8.44L75.91 8.44Q76.76 8.02 77.35 7.55L77.35 7.55ZM71.61 8.55L71.61 8.55Q72.56 7.84 73.35 7.02L73.35 7.02L73.35 7.02Q74.13 6.20 74.66 5.12L74.66 5.12L74.79 4.58L74.79 4.58Q74.35 4.38 74.02 4.38L74.02 4.38L74.02 4.38Q73.36 4.38 72.84 4.97L72.84 4.97L72.84 4.97Q72.32 5.56 72.02 6.51L72.02 6.51L72.02 6.51Q71.71 7.46 71.61 8.55L71.61 8.55ZM84.28 8.26L84.28 8.26Q83.41 8.96 82.47 9.51L82.47 9.51L82.47 9.51Q81.54 10.05 81.03 10.05L81.03 10.05L81.03 10.05Q80.82 10.05 80.48 9.82L80.48 9.82L80.48 9.82Q80.14 9.59 79.88 9.27L79.88 9.27L79.88 9.27Q79.62 8.95 79.62 8.68L79.62 8.68L79.62 8.68Q79.62 8.43 79.74 8.02L79.74 8.02L79.74 8.02Q79.86 7.62 80.12 6.85L80.12 6.85L80.12 6.85Q80.51 5.75 80.51 5.49L80.51 5.49L80.51 5.49Q80.51 5.38 80.38 5.24L80.38 5.24L80.38 5.24Q80.25 5.11 79.98 4.91L79.98 4.91L79.98 4.91Q79.67 4.68 79.53 4.54L79.53 4.54L79.53 4.54Q79.38 4.40 79.38 4.24L79.38 4.24L79.38 4.24Q79.38 3.95 79.65 3.56L79.65 3.56L79.65 3.56Q79.93 3.16 80.30 2.88L80.30 2.88L80.30 2.88Q80.67 2.60 80.93 2.60L80.93 2.60L80.93 2.60Q81.23 2.60 81.61 2.87L81.61 2.87L81.61 2.87Q82.00 3.14 82.28 3.48L82.28 3.48L82.28 3.48Q82.57 3.82 82.57 4.00L82.57 4.00L82.57 4.00Q82.57 4.79 82.35 5.87L82.35 5.87L82.35 5.87Q82.14 6.96 81.73 8.09L81.73 8.09L81.73 8.09Q82.87 7.50 84.00 6.58L84.00 6.58L84.00 6.58Q84.18 4.79 84.35 3.88L84.35 3.88L84.35 3.88Q84.52 2.98 84.83 2.98L84.83 2.98L84.83 2.98Q85.04 2.98 85.46 3.27L85.46 3.27L85.46 3.27Q85.89 3.56 86.23 3.91L86.23 3.91L86.23 3.91Q86.58 4.27 86.58 4.47L86.58 4.47L86.58 4.47Q86.58 4.76 86.14 7.13L86.14 7.13L86.14 7.13Q85.71 9.51 85.23 11.70L85.23 11.70L85.23 11.70Q84.76 13.89 84.55 14.22L84.55 14.22L84.55 14.22Q84.24 14.73 83.54 15.11L83.54 15.11L83.54 15.11Q82.84 15.48 82.18 15.48L82.18 15.48L82.18 15.48Q81.62 15.48 80.98 15.11L80.98 15.11L80.98 15.11Q80.35 14.73 79.92 14.18L79.92 14.18L79.92 14.18Q79.49 13.62 79.49 13.16L79.49 13.16L79.49 13.16Q79.49 12.54 80.89 11.36L80.89 11.36L80.89 11.36Q82.29 10.18 84.53 8.64L84.53 8.64L84.28 8.26ZM84.06 10.54L84.06 10.54Q81.59 12.47 81.59 13.23L81.59 13.23L81.59 13.23Q81.59 13.50 81.87 13.72L81.87 13.72L81.87 13.72Q82.15 13.94 82.57 14.01L82.57 14.01L82.57 14.01Q83.03 13.36 83.35 12.59L83.35 12.59L83.35 12.59Q83.66 11.83 84.06 10.54L84.06 10.54Z"></path></g><defs data-v-fde0c5aa=""><!----></defs><g data-v-fde0c5aa="" id="cfe8161e-c305-4135-a957-8b5402c16934" stroke="none" fill="#F6F3F2" transform="matrix(1.4015280834770254,0,0,1.4015280834770254,40,127.5755506643676)"><path d="M16 32c8.837 0 16-7.163 16-16S24.837 0 16 0 0 7.163 0 16s7.163 16 16 16zM14.817 6.421h2v8.886h8.887v2H14.817V6.421zm-5.959.437h2v14.283h14.283v2H8.858V6.858z"></path></g><!----></svg>